<svg xmlns="http://www.w3.org/2000/svg" id="Layer_1" data-name="Layer 1" viewBox="0 0 373.64 81.84"><defs><style>      .cls-1 {        fill: #d62027;      }      .cls-2 {        fill: #231f20;      }      .cls-3 {        fill: #cc2027;      }      .cls-4 {        fill: #dbba27;      }      .cls-5 {        fill: #434346;      }      .cls-6 {        fill: #eb2024;      }      .cls-7 {        fill: #dbdede;      }      .cls-8 {        fill: #441213;      }      .cls-9 {        fill: #4e4e50;      }      .cls-10 {        fill: #4d4219;      }      .cls-11 {        fill: #ec2227;      }      .cls-12 {        fill: #fed600;      }    </style></defs><g><path class="cls-2" d="M113.58,8.1c0,3.41-1.46,5.21-4.41,5.21s-4.44-1.77-4.44-5.18V.83h1.37v7.27c0,2.65,1.02,3.97,3.14,3.97s2.97-1.28,2.97-3.93V.83h1.37v7.27Z"></path><path class="cls-2" d="M116.67,13.12V.83h1.33l5.32,8.57c.26.42.72,1.23.88,1.55V.83h1.32v12.29h-1.28l-5.37-8.41c-.26-.42-.72-1.23-.88-1.54v9.95h-1.32Z"></path><path class="cls-2" d="M130.15,13.12h-1.37V.83h1.37v12.29Z"></path><path class="cls-2" d="M142.6.83l-4.18,12.29h-1.51l-4.18-12.29h1.44l2.74,8.41c.25.74.63,1.98.75,2.42.12-.44.54-1.74.77-2.46l2.76-8.37h1.4Z"></path><path class="cls-2" d="M152.78,13.12h-7.69V.83h7.42v1.25h-6.06v3.86h3.51v1.25h-3.51v4.69h6.32v1.25Z"></path><path class="cls-2" d="M164.03,4.31c0,1.91-1.14,3.11-2.9,3.48l2.7,5.34h-1.58l-2.63-5.23h-2.91v5.23h-1.37V.83h4.86c2.16,0,3.83,1.11,3.83,3.48ZM162.66,4.36c0-1.51-.88-2.28-2.51-2.28h-3.44v4.58h3.26c1.83,0,2.69-.76,2.69-2.3Z"></path><path class="cls-2" d="M174.24,9.89c0,1.93-1.51,3.42-4.07,3.42-1.67,0-3.16-.72-4.12-1.7l.91-1.02c.93.9,2,1.47,3.26,1.47,1.63,0,2.65-.81,2.65-2.11,0-1.14-.68-1.79-2.93-2.6-2.65-.95-3.55-1.81-3.55-3.58,0-1.97,1.54-3.14,3.84-3.14,1.65,0,2.7.49,3.74,1.32l-.88,1.07c-.9-.74-1.72-1.14-2.95-1.14-1.69,0-2.39.84-2.39,1.81,0,1.02.46,1.6,2.91,2.48,2.72.98,3.56,1.9,3.56,3.72Z"></path><path class="cls-2" d="M178.49,13.12h-1.37V.83h1.37v12.29Z"></path><path class="cls-2" d="M189.6,2.08h-3.62v11.04h-1.37V2.08h-3.62V.83h8.6v1.25Z"></path><path class="cls-2" d="M201.02.83l-4.21,7.41v4.88h-1.37v-4.86l-4.21-7.42h1.56l1.97,3.53c.49.9,1.04,1.91,1.39,2.63.35-.72.9-1.76,1.39-2.63l1.97-3.53h1.53Z"></path><path class="cls-2" d="M217.59,6.96c0,3.7-2.07,6.35-5.13,6.35s-5.07-2.62-5.07-6.32,2.05-6.35,5.11-6.35,5.09,2.62,5.09,6.32ZM216.22,6.99c0-3.09-1.63-5.11-3.77-5.11s-3.69,1.98-3.69,5.07,1.62,5.11,3.76,5.11,3.7-1.98,3.7-5.07Z"></path><path class="cls-2" d="M227.45,2.08h-5.85v4.07h3.37v1.25h-3.37v5.72h-1.37V.83h7.21v1.25Z"></path><path class="cls-2" d="M239.58,13.43l-3.23-7.92c-.26-.63-.6-1.56-.72-2.04v9.64h-1.32V.83h1.53l2.9,7.35c.3.74.74,1.88.88,2.39.16-.53.6-1.67.88-2.39l2.93-7.35h1.49v12.29h-1.32V3.48c-.12.47-.47,1.39-.74,2.04l-3.28,7.92Z"></path><path class="cls-2" d="M257.45,13.12h-1.44l-1.05-3.12h-5.07l-1.07,3.12h-1.4l4.27-12.29h1.51l4.27,12.29ZM254.53,8.75l-1.35-4.04c-.26-.81-.63-1.91-.76-2.42-.12.49-.47,1.6-.77,2.46l-1.35,4h4.23Z"></path><path class="cls-2" d="M268.63,4.31c0,1.91-1.14,3.11-2.9,3.48l2.7,5.34h-1.58l-2.63-5.23h-2.91v5.23h-1.37V.83h4.86c2.16,0,3.83,1.11,3.83,3.48ZM267.26,4.36c0-1.51-.88-2.28-2.51-2.28h-3.44v4.58h3.26c1.83,0,2.69-.76,2.69-2.3Z"></path><path class="cls-2" d="M280.3.83l-4.21,7.41v4.88h-1.37v-4.86l-4.21-7.42h1.56l1.97,3.53c.49.9,1.04,1.91,1.39,2.63.35-.72.9-1.76,1.39-2.63l1.97-3.53h1.53Z"></path><path class="cls-2" d="M290.13,13.12h-7.44V.83h1.37v11.04h6.07v1.25Z"></path><path class="cls-2" d="M302.08,13.12h-1.44l-1.05-3.12h-5.07l-1.07,3.12h-1.4l4.27-12.29h1.51l4.27,12.29ZM299.17,8.75l-1.35-4.04c-.26-.81-.63-1.91-.76-2.42-.12.49-.47,1.6-.77,2.46l-1.35,4h4.23Z"></path><path class="cls-2" d="M304.57,13.12V.83h1.33l5.32,8.57c.26.42.72,1.23.88,1.55V.83h1.32v12.29h-1.28l-5.37-8.41c-.26-.42-.72-1.23-.88-1.54v9.95h-1.32Z"></path><path class="cls-2" d="M325.44,6.89c0,4.46-2.56,6.23-5.85,6.23h-3V.83h3.25c3.23,0,5.6,1.84,5.6,6.06ZM324.07,6.94c0-3.14-1.51-4.86-4.34-4.86h-1.77v9.79h1.81c2.65,0,4.3-1.4,4.3-4.93Z"></path></g><g><path class="cls-1" d="M112.08,81.61v-3.73c0-.55.03-1.84.03-2.23-.14.38-.45,1.1-.71,1.68l-2.06,4.51-2.06-4.51c-.26-.58-.56-1.3-.71-1.68,0,.39.03,1.68.03,2.23v3.73h-1.99v-10.15h1.96l2.12,4.6c.26.56.57,1.33.69,1.7.13-.38.42-1.12.68-1.7l2.04-4.6h2v10.15h-2.03Z"></path><path class="cls-1" d="M120.5,72.49h-2.62v4.1h2.48c1.55,0,2.29-.71,2.29-2.06s-.75-2.05-2.15-2.05M120.34,77.62h-2.46v3.99h-1.13v-10.15h3.8c1.84,0,3.23.97,3.23,3.03s-1.41,3.13-3.44,3.13"></path><path class="cls-1" d="M129.45,72.33c-1.75,0-3.04,1.64-3.04,4.19s1.33,4.22,3.1,4.22,3.06-1.64,3.06-4.19-1.35-4.22-3.12-4.22M129.46,81.77c-2.52,0-4.19-2.16-4.19-5.22s1.7-5.25,4.22-5.25,4.2,2.16,4.2,5.22-1.71,5.25-4.23,5.25"></path><path class="cls-1" d="M143.84,81.61h-1.27l-1.59-6.49c-.16-.67-.38-1.67-.49-2.29-.12.62-.33,1.59-.49,2.29l-1.59,6.49h-1.25l-2.03-10.15h1.13l1.19,6.52c.11.67.29,1.77.38,2.26.09-.49.32-1.58.48-2.23l1.61-6.55h1.22l1.61,6.55c.16.65.39,1.74.48,2.23.09-.49.26-1.6.38-2.26l1.19-6.52h1.1l-2.03,10.15Z"></path><polygon class="cls-1" points="148.04 81.61 148.04 71.46 154.17 71.46 154.17 72.49 149.17 72.49 149.17 75.68 152.07 75.68 152.07 76.71 149.17 76.71 149.17 80.58 154.39 80.58 154.39 81.61 148.04 81.61"></polygon><path class="cls-1" d="M160.52,72.49h-2.84v3.78h2.7c1.51,0,2.22-.62,2.22-1.9s-.73-1.88-2.07-1.88M161.33,77.21l2.23,4.41h-1.3l-2.17-4.32h-2.41v4.32h-1.13v-10.15h4.02c1.78,0,3.16.91,3.16,2.87,0,1.58-.94,2.57-2.39,2.87"></path><rect class="cls-1" x="166.04" y="71.46" width="1.13" height="10.15"></rect><path class="cls-1" d="M176.16,81.61l-4.44-6.94c-.22-.35-.59-1.01-.72-1.28v8.22h-1.09v-10.15h1.1l4.39,7.07c.22.35.59,1.02.72,1.28v-8.35h1.09v10.15h-1.06Z"></path><path class="cls-1" d="M183.56,81.77c-2.48,0-4.1-2.25-4.1-5.22s1.7-5.25,4.15-5.25c1.39,0,2.44.52,3.23,1.62l-.9.68c-.65-.88-1.26-1.28-2.36-1.28-1.74,0-2.99,1.72-2.99,4.19s1.31,4.22,3,4.22,2.62-1.04,2.62-3.03v-.09h-1.82v-1.04h2.93v.98c0,2.8-1.61,4.2-3.75,4.2"></path><polygon class="cls-1" points="196.71 72.49 196.71 81.61 195.58 81.61 195.58 72.49 192.59 72.49 192.59 71.46 199.7 71.46 199.7 72.49 196.71 72.49"></polygon><polygon class="cls-1" points="207.92 81.61 207.92 76.83 202.87 76.83 202.87 81.61 201.74 81.61 201.74 71.46 202.87 71.46 202.87 75.8 207.92 75.8 207.92 71.46 209.05 71.46 209.05 81.61 207.92 81.61"></polygon><polygon class="cls-1" points="211.72 81.61 211.72 71.46 217.85 71.46 217.85 72.49 212.85 72.49 212.85 75.68 215.75 75.68 215.75 76.71 212.85 76.71 212.85 80.58 218.07 80.58 218.07 81.61 211.72 81.61"></polygon><path class="cls-1" d="M226.87,81.77c-1.38,0-2.61-.59-3.41-1.41l.75-.84c.77.74,1.65,1.22,2.69,1.22,1.35,0,2.19-.67,2.19-1.74,0-.94-.56-1.48-2.42-2.14-2.19-.78-2.93-1.49-2.93-2.96,0-1.62,1.27-2.59,3.17-2.59,1.36,0,2.24.41,3.09,1.09l-.72.88c-.74-.61-1.42-.94-2.44-.94-1.39,0-1.97.7-1.97,1.49,0,.84.38,1.32,2.41,2.04,2.25.81,2.94,1.57,2.94,3.07,0,1.59-1.25,2.83-3.36,2.83"></path><polygon class="cls-1" points="235.77 72.49 235.77 81.61 234.64 81.61 234.64 72.49 231.65 72.49 231.65 71.46 238.75 71.46 238.75 72.49 235.77 72.49"></polygon><path class="cls-1" d="M243.9,74.67c-.23-.67-.52-1.58-.62-2-.1.41-.39,1.32-.64,2.03l-1.11,3.3h3.49l-1.12-3.33ZM246.24,81.61l-.87-2.58h-4.19l-.88,2.58h-1.16l3.52-10.15h1.24l3.52,10.15h-1.19Z"></path><polygon class="cls-1" points="251.92 72.49 251.92 81.61 250.79 81.61 250.79 72.49 247.81 72.49 247.81 71.46 254.91 71.46 254.91 72.49 251.92 72.49"></polygon><polygon class="cls-1" points="256.96 81.61 256.96 71.46 263.09 71.46 263.09 72.49 258.08 72.49 258.08 75.68 260.98 75.68 260.98 76.71 258.08 76.71 258.08 80.58 263.3 80.58 263.3 81.61 256.96 81.61"></polygon></g><g><path class="cls-7" d="M28.03,80.3l1.55,1.55,7.91-12.38-.96-2.37-8.5,13.21ZM37.92,64.98l.96,2.37,2.26-3.44-1.25-1.91-1.96,2.98ZM18.13,58.43l-3.78,8.9,8.94-3.79.52-2.48-5.53,2.34,2.33-5.49-2.48.52ZM26.16,60.06l-.51,2.48,7.73-3.27-.78-1.93-6.44,2.72ZM41.14,60.09l1.25,1.9,2.8-4.27-1.95-.83-2.1,3.2ZM34.51,56.53l.78,1.93,1.78-.75-1.16-1.77-1.4.59ZM37.86,55.11l1.16,1.77,2.1-.89-2.67-1.14-.59.25ZM41.12,53.73l2.67,1.13.92-.39.07.07-.38.58,1.95.83.71-1.08-5.79-1.2-.15.06ZM45.38,51.92l4.91-1.98.08-.13-4.99,2.11ZM19.13,56.07l2.48-.51,2.74-6.45-1.93-.78-3.29,7.74ZM23.23,46.41l1.93.78.59-1.4-1.77-1.16-.76,1.78ZM0,52.27l1.55,1.55,13.07-8.64-2.37-.96L0,52.27ZM14.36,42.83l2.37.96,2.98-1.96-1.91-1.25-3.44,2.25ZM24.82,42.68l1.77,1.16.26-.6-1.13-2.66-.89,2.1ZM19.71,39.32l1.91,1.25,3.2-2.11-.83-1.95-4.28,2.8ZM25.75,35.36l.83,1.95.58-.38.06.06-.39.92,1.13,2.66.06-.15-1.2-5.77-1.08.71ZM31.76,31.42l-1.85,4.59,1.99-4.68-.13.09Z"></path><path class="cls-7" d="M52.44,0l-7.68,11.72.96,2.37L53.97,1.53l-1.53-1.53ZM67.89,13.79l-8.9,3.78-.51,2.48,5.49-2.33-2.34,5.53,2.49-.51,3.78-8.94ZM43.36,13.84l-2.23,3.4,1.25,1.91,1.94-2.95-.96-2.36ZM56.63,18.57l-7.76,3.3.78,1.93,6.47-2.75.51-2.48ZM39.88,19.15l-2.81,4.29,1.95.82,2.11-3.21-1.25-1.9ZM46.95,22.68l-1.76.75,1.16,1.77,1.38-.59-.78-1.93ZM43.24,24.26l-2.12.9,2.67,1.13.61-.26-1.16-1.77ZM63.11,25.08l-2.49.51-2.73,6.45,1.93.78,3.28-7.75ZM35.91,25.21l-.7,1.06,5.77,1.2.14-.06-2.66-1.13-.9.38-.06-.07.37-.56-1.95-.83ZM80.18,27.74l-12.56,8.25,2.37.96,11.72-7.68-1.53-1.53ZM36.04,29.57l-4.08,1.65-.07.11,4.15-1.76ZM57.08,33.97l-.58,1.38,1.77,1.16.74-1.75-1.94-.78ZM55.67,37.3l-.25.6,1.13,2.68.89-2.11-1.77-1.17ZM65.5,37.38l-2.94,1.94,1.91,1.25,3.4-2.23-2.37-.96ZM54.28,40.57l-.06.13,1.2,5.79,1.06-.7-.82-1.95-.57.37-.07-.07.38-.9-1.13-2.67ZM60.65,40.57l-3.21,2.11.83,1.96,4.28-2.81-1.91-1.25ZM52.28,45.3l-1.91,4.51.11-.07,1.8-4.44Z"></path><path class="cls-11" d="M54.2,40.57l-1.92,4.73,1.94-4.6-.03-.13ZM28.07,40.57l-.03.15,1.88,4.42-1.85-4.57ZM26.83,46.49l-.26,1.27,1.97.79.14-.68h.09l.38.93,2.67,1.08-.06-.15-4.92-3.23ZM55.43,46.49l-4.95,3.25-.06.15,2.69-1.09.38-.93h.09l.14.68,1.96-.79-.26-1.27ZM26.14,49.83l-1.04,5.01,2.23-.46.78-3.75-1.97-.8ZM56.13,49.83l-1.97.79.77,3.75,2.23.46-1.04-5ZM30.23,51.48l.85,2.12,2.07-.43-.25-.61-2.68-1.08ZM52.03,51.48l-2.7,1.09-.24.6,2.08.43.86-2.11ZM48.3,55.13l-.57,1.41,1.92.82.73-1.79-2.08-.43ZM33.95,55.13l-2.07.43.72,1.77,1.91-.81-.56-1.39ZM55.4,56.61l.72,3.49,2.36,1-.84-4.03-2.24-.47ZM26.87,56.61l-2.23.47-.83,3.99,2.35-1,.71-3.45ZM35.29,58.46l-1.92.81,3.16,7.82,1.39-2.11-2.63-6.52ZM46.95,58.47l-2.63,6.47,1.39,2.12,3.15-7.78-1.92-.81ZM25.65,62.54l-2.35,1-2.85,13.71h2.16l3.04-14.71ZM56.63,62.58l3.04,14.68h2.17l-2.84-13.67-2.36-1ZM43.36,67.31l-2.26,5.57-2.23-5.52-1.39,2.12,3.62,8.97,3.65-9-1.39-2.12Z"></path><path class="cls-3" d="M34.51,56.53l-1.91.81.78,1.93,1.92-.81-.78-1.94ZM26.16,60.06l-2.35.99-.51,2.49,2.35-1,.51-2.48ZM37.92,64.98l-1.39,2.11.96,2.37,1.39-2.12-.96-2.37Z"></path><polygon class="cls-3" points="54.23 40.71 52.28 45.3 50.48 49.74 55.43 46.5 54.23 40.71"></polygon><path class="cls-11" d="M41.11,2.71l-3.62,8.97,1.39,2.12,2.23-5.53,2.26,5.57,1.39-2.12-3.65-9ZM61.83,3.89h-2.17l-3.04,14.68,2.36-1,2.85-13.68ZM22.6,3.89h-2.17l2.85,13.72,2.35.99-3.04-14.71ZM36.53,14.05l-3.15,7.82,1.91.81,2.63-6.52-1.39-2.11ZM45.72,14.09l-1.39,2.12,2.62,6.48,1.92-.82-3.15-7.78ZM58.47,20.05l-2.35,1-.73,3.5,2.24-.47.84-4.03ZM23.81,20.09l.83,3.98,2.24.47-.72-3.46-2.35-.99ZM49.65,23.79l-1.92.81.57,1.41,2.08-.43-.73-1.79ZM32.59,23.81l-.72,1.77,2.07.43.56-1.4-1.91-.81ZM25.1,26.31l1.04,5.02,1.97-.8-.78-3.76-2.23-.46ZM57.17,26.31l-2.23.46-.78,3.76,1.97.8,1.04-5.02ZM31.08,27.55l-.86,2.13,2.68-1.09.25-.61-2.07-.43ZM51.18,27.55l-2.08.43.25.6,2.69,1.09-.86-2.12ZM50.43,31.28l.05.13,4.95,3.25.26-1.25-1.96-.8-.14.66h-.1l-.37-.91-2.69-1.09ZM31.82,31.28l-2.68,1.08-.37.91h-.09l-.14-.66-1.96.8.26,1.25,4.93-3.23.06-.14ZM52.29,35.87l1.91,4.7.02-.13-1.93-4.57ZM29.91,36.01l-1.87,4.41.03.15,1.84-4.56Z"></path><polygon class="cls-3" points="31.76 31.42 26.83 34.65 28.03 40.42 29.91 36.01 31.76 31.42"></polygon><path class="cls-3" d="M44.76,11.72l-1.39,2.12.96,2.36,1.39-2.12-.96-2.37ZM58.99,17.57l-2.36,1-.51,2.48,2.36-1,.51-2.48ZM48.87,21.86l-1.92.82.78,1.93,1.92-.81-.78-1.93Z"></path><path class="cls-9" d="M50.37,31.33l1.92,4.53-1.81-4.46-.11-.07ZM55.43,34.65l-1.2,5.79.06.13,1.13-2.68-.38-.9.06-.07.57.37.83-1.95-1.07-.7ZM58.27,36.51l-.83,1.96,3.21,2.11,1.91-1.25-4.29-2.81ZM56.55,40.57l-1.13,2.68.26.6,1.77-1.17-.89-2.11ZM64.47,40.57l-1.91,1.25,2.98,1.96,2.37-.96-3.44-2.26ZM58.27,44.63l-1.77,1.16.59,1.4,1.93-.78-.75-1.78Z"></path><path class="cls-5" d="M56.5,35.35l-.83,1.95,1.77,1.16.83-1.95-1.77-1.16ZM55.42,37.9l-1.13,2.68,1.13,2.67,1.13-2.68-1.13-2.67ZM62.55,39.32l-1.91,1.25,1.91,1.25,1.91-1.25-1.91-1.25ZM57.44,42.68l-1.77,1.17.83,1.95,1.77-1.16-.83-1.95Z"></path><polygon class="cls-8" points="50.49 31.41 52.29 35.87 54.23 40.44 55.43 34.65 50.49 31.41"></polygon><path class="cls-9" d="M70.03,44.22l-2.37.96,12.52,8.24,1.53-1.53-11.68-7.66ZM59.84,48.33l-1.94.78,2.72,6.43,2.49.51-3.27-7.73ZM31.89,49.81l.09.13,4.53,1.83-4.62-1.96ZM40.98,53.67l-5.77,1.2.7,1.06,1.95-.83-.37-.57.07-.06.9.38,2.66-1.13-.14-.06ZM43.79,54.86l-2.66,1.13,2.11.9,1.16-1.77-.61-.26ZM46.35,55.95l-1.16,1.77,1.76.75.78-1.93-1.38-.59ZM39.03,56.88l-1.96.82,2.81,4.29,1.25-1.9-2.11-3.21ZM49.65,57.35l-.78,1.93,7.76,3.3-.51-2.48-6.46-2.75ZM61.62,57.9l2.34,5.53-5.49-2.33.52,2.48,8.9,3.78-3.79-8.94-2.49-.52ZM42.39,61.99l-1.25,1.91,2.23,3.4.96-2.36-1.94-2.95ZM45.72,67.06l-.96,2.37,7.68,11.72,1.53-1.53-8.25-12.55Z"></path><path class="cls-5" d="M41.12,53.73l-2.66,1.13,2.67,1.13,2.66-1.13-2.67-1.13ZM37.86,55.11l-1.95.83,1.16,1.77,1.96-.82-1.17-1.77ZM44.4,55.12l-1.16,1.77,1.95.83,1.16-1.77-1.95-.83ZM41.13,60.09l-1.25,1.9,1.25,1.91,1.25-1.91-1.25-1.9Z"></path><path class="cls-8" d="M47.73,56.54l-.78,1.93,1.92.82.78-1.93-1.92-.82ZM56.12,60.1l.51,2.48,2.36,1-.51-2.48-2.35-1ZM44.33,64.94l-.96,2.36,1.39,2.12.96-2.37-1.39-2.12Z"></path><path class="cls-9" d="M29.83,0l-1.53,1.53,8.23,12.52.96-2.37L29.83,0ZM38.88,13.8l-.96,2.37,1.97,2.99,1.25-1.91-2.25-3.45ZM14.35,13.82l3.78,8.9,2.48.51-2.33-5.49,5.53,2.34-.52-2.48-8.94-3.78ZM25.64,18.6l.51,2.48,6.43,2.72.78-1.93-7.73-3.27ZM42.39,19.15l-1.25,1.91,2.11,3.2,1.95-.83-2.8-4.28ZM35.29,22.68l-.78,1.94,1.4.59,1.16-1.77-1.78-.76ZM39.02,24.26l-1.16,1.77.6.25,2.67-1.14-2.1-.89ZM46.35,25.19l-1.95.83.38.58-.06.07-.92-.39-2.67,1.13.15.06,5.79-1.21-.71-1.08Z"></path><path class="cls-5" d="M41.13,17.24l-1.25,1.91,1.25,1.91,1.25-1.91-1.25-1.91ZM45.19,23.43l-1.95.83,1.16,1.76,1.95-.82-1.16-1.77ZM37.07,23.44l-1.16,1.77,1.95.82,1.16-1.77-1.95-.82ZM41.13,25.16l-2.67,1.14,2.66,1.13,2.67-1.13-2.66-1.13Z"></path><path class="cls-8" d="M37.49,11.68l-.96,2.37,1.39,2.11.96-2.37-1.39-2.12ZM23.29,17.61l.51,2.48,2.35.99-.51-2.48-2.35-1ZM33.38,21.88l-.78,1.93,1.91.81.78-1.94-1.91-.81Z"></path><path class="cls-9" d="M19.13,25.08l3.3,7.76,1.92-.78-2.74-6.47-2.48-.51ZM2.1,27.74l-1.53,1.53,11.72,7.69,2.37-.96L2.1,27.74ZM45.87,29.43l4.51,1.91-.07-.11-4.44-1.8ZM25.17,33.98l-1.92.78.75,1.76,1.77-1.16-.59-1.38ZM26.59,37.31l-1.77,1.16.89,2.11,1.13-2.66-.26-.6ZM16.76,37.38l-2.36.96,3.4,2.23,1.91-1.25-2.95-1.94ZM21.62,40.57l-1.91,1.25,4.28,2.8.83-1.95-3.2-2.1ZM27.97,40.57l-1.13,2.66.39.92-.07.06-.58-.38-.83,1.95,1.08.71,1.2-5.77-.06-.15ZM29.91,45.15l1.85,4.58.13.09-1.98-4.66Z"></path><path class="cls-5" d="M25.76,35.36l-1.77,1.16.83,1.95,1.77-1.16-.82-1.95ZM26.84,37.91l-1.13,2.66,1.13,2.66,1.13-2.66-1.13-2.66ZM19.71,39.32l-1.91,1.25,1.91,1.25,1.91-1.25-1.91-1.25ZM24.82,42.68l-.83,1.95,1.77,1.16.82-1.95-1.77-1.16Z"></path><polygon class="cls-8" points="28.03 40.72 26.84 46.5 31.76 49.73 29.91 45.15 28.03 40.72"></polygon><path class="cls-12" d="M77.82,19.88l-13.72,2.85-.99,2.35,14.71-3.04v-2.17ZM61.62,23.25l-3.99.83-.47,2.24,3.45-.71,1-2.35ZM55.4,24.54l-5.02,1.04.8,1.97,3.75-.78.46-2.23ZM48.3,26.02l-1.24.26,3.25,4.95.13.05-1.09-2.69-.91-.37v-.09l.67-.14-.8-1.97ZM52.03,29.67l1.09,2.69.6.25.43-2.08-2.12-.86ZM56.12,31.33l-.43,2.08,1.39.56.81-1.92-1.77-.72ZM59.82,32.83l-.81,1.92,6.49,2.63,2.12-1.39-7.8-3.16ZM69.99,36.95l-2.12,1.39,5.57,2.26-5.53,2.23,2.12,1.39,8.97-3.62-9-3.65Z"></path><path class="cls-4" d="M64.1,22.73l-2.48.51-1,2.35,2.49-.51.99-2.35ZM57.89,32.05l-.81,1.92,1.94.78.81-1.92-1.93-.78ZM67.62,35.99l-2.12,1.39,2.37.96,2.12-1.39-2.37-.96Z"></path><path class="cls-6" d="M57.63,24.07l-2.24.47-.46,2.23,2.23-.46.47-2.24ZM50.38,25.59l-2.08.43.8,1.97,2.08-.43-.8-1.97ZM49.34,28.58l1.09,2.69,2.69,1.09-1.09-2.69-2.69-1.09ZM54.16,30.53l-.43,2.08,1.96.8.43-2.08-1.97-.8Z"></path><path class="cls-12" d="M41.27,27.48l-.13.03,4.73,1.92-4.6-1.94ZM65.54,43.79l-6.51,2.63.81,1.92,7.81-3.16-2.11-1.39ZM57.09,47.2l-1.39.56.43,2.07,1.77-.72-.81-1.91ZM53.73,48.55l-.61.25-1.09,2.68,2.13-.86-.43-2.07ZM50.42,49.89l-.13.05-3.23,4.93,1.24.26.8-1.97-.66-.14v-.09l.9-.36,1.08-2.68ZM45.38,51.92l-4.25,1.72.13.03,4.12-1.74ZM51.17,53.59l-.8,1.97,5.02,1.04-.46-2.24-3.76-.78ZM57.17,54.83l.47,2.24,3.98.83-1-2.35-3.45-.72Z"></path><polygon class="cls-4" points="50.29 49.94 45.39 51.92 41.27 53.67 47.06 54.87 50.29 49.94"></polygon><path class="cls-6" d="M55.69,47.76l-1.97.79.43,2.07,1.97-.79-.43-2.07ZM53.12,48.8l-2.69,1.08-1.09,2.68,2.7-1.09,1.08-2.68ZM49.1,53.17l-.8,1.96,2.08.43.8-1.97-2.08-.43ZM54.93,54.37l.46,2.23,2.24.47-.47-2.24-2.23-.46Z"></path><polygon class="cls-12" points="63.11 56.06 64.1 58.42 77.81 61.27 77.82 59.1 63.11 56.06"></polygon><path class="cls-10" d="M67.91,42.83l-2.37.96,2.11,1.39,2.37-.95-2.12-1.39ZM59.03,46.42l-1.94.78.81,1.92,1.94-.78-.81-1.92ZM60.62,55.55l1,2.35,2.49.52-.99-2.36-2.49-.51Z"></path><polygon class="cls-10" points="47.06 26.27 41.27 27.48 45.87 29.43 50.3 31.22 47.06 26.27"></polygon><path class="cls-12" d="M4.45,19.88v2.17l14.68,3.03-1-2.35-13.68-2.85ZM20.6,23.24l1,2.35,3.5.72-.47-2.23-4.03-.84ZM26.87,24.54l.46,2.23,3.75.77.8-1.97-5.01-1.04ZM33.95,26.01l-.8,1.96.69.14v.1l-.93.37-1.09,2.69.15-.06,3.24-4.95-1.26-.26ZM40.98,27.47l-4.93,2.1,5.09-2.07-.16-.03ZM30.23,29.68l-2.12.85.43,2.08.6-.24,1.09-2.69ZM26.14,31.33l-1.79.73.81,1.92,1.41-.57-.43-2.08Z"></path><polygon class="cls-4" points="35.21 26.27 31.97 31.22 36.04 29.57 40.98 27.47 35.21 26.27"></polygon><path class="cls-6" d="M24.64,24.07l.47,2.24,2.23.46-.46-2.23-2.23-.47ZM31.88,25.58l-.79,1.97,2.06.43.8-1.96-2.07-.43ZM32.9,28.59l-2.68,1.09-1.09,2.69,2.68-1.09,1.09-2.69ZM28.11,30.53l-1.97.8.43,2.08,1.96-.8-.43-2.08Z"></path><path class="cls-12" d="M22.43,32.84l-7.78,3.15,2.12,1.39,6.48-2.62-.81-1.92ZM12.28,36.95l-9,3.65,8.97,3.62,2.12-1.39-5.53-2.23,5.57-2.26-2.12-1.39ZM16.73,43.79l-2.11,1.39,7.8,3.15.81-1.91-6.5-2.63ZM25.16,47.19l-.81,1.91,1.79.73.43-2.07-1.41-.57ZM28.54,48.55l-.43,2.07,2.12.86-1.08-2.68-.61-.25ZM31.82,49.88l1.08,2.68.93.37v.09l-.68.14.79,1.97,1.27-.26-3.23-4.93-.16-.06ZM31.08,53.6l-3.75.77-.46,2.23,5.01-1.04-.79-1.97ZM25.1,54.84l-3.49.72-1,2.35,4.03-.84.46-2.24ZM19.13,56.07l-14.68,3.04v2.16l13.67-2.84,1-2.36Z"></path><path class="cls-4" d="M14.36,42.83l-2.12,1.39,2.37.96,2.11-1.39-2.37-.96ZM23.23,46.41l-.81,1.92,1.93.78.81-1.91-1.93-.78ZM21.61,55.56l-2.48.51-1,2.36,2.48-.51,1-2.35Z"></path><path class="cls-6" d="M26.57,47.76l-.43,2.06,1.97.8.43-2.07-1.97-.79ZM29.15,48.8l1.08,2.68,2.68,1.08-1.08-2.68-2.67-1.08ZM33.15,53.17l-2.07.43.8,1.97,2.06-.43-.79-1.97ZM27.33,54.37l-2.23.46-.46,2.24,2.23-.47.46-2.23Z"></path><polygon class="cls-12" points="40.98 53.67 41.14 53.64 36.5 51.77 40.98 53.67"></polygon><polygon class="cls-10" points="31.98 49.94 35.21 54.87 40.98 53.67 36.51 51.77 31.98 49.94"></polygon><path class="cls-10" d="M18.13,22.72l1,2.36,2.48.51-1-2.35-2.48-.51ZM24.36,32.06l-1.93.78.81,1.92,1.92-.78-.81-1.92ZM14.65,35.99l-2.37.96,2.12,1.39,2.37-.96-2.12-1.39Z"></path></g><g><path class="cls-2" d="M104.74,39.45v-18.48h3.7v18.48h-3.7Z"></path><path class="cls-2" d="M125.12,39.45l-6.79-10.09c-.45-.69-1.06-1.61-1.29-2.09,0,.69.05,3.01.05,4.04v8.13h-3.64v-18.48h3.54l6.55,9.77c.45.69,1.06,1.61,1.29,2.09,0-.69-.05-3.01-.05-4.04v-7.82h3.64v18.48h-3.3Z"></path><path class="cls-2" d="M139.46,39.74c-3.09,0-5.78-1.29-7.18-3.35l2.67-2.38c1.29,1.51,2.96,2.11,4.73,2.11,2.19,0,3.22-.61,3.22-2.01,0-1.19-.63-1.72-4.12-2.51-3.41-.79-5.78-1.87-5.78-5.52,0-3.35,2.96-5.41,6.6-5.41,2.88,0,4.99,1.08,6.73,2.9l-2.67,2.59c-1.19-1.21-2.51-1.9-4.2-1.9-1.98,0-2.64.85-2.64,1.66,0,1.16.79,1.53,3.72,2.22,2.93.69,6.18,1.69,6.18,5.7,0,3.51-2.22,5.89-7.26,5.89Z"></path><path class="cls-2" d="M157.75,24.61v14.84h-3.7v-14.84h-5.31v-3.64h14.31v3.64h-5.31Z"></path><path class="cls-2" d="M166.88,39.45v-18.48h3.7v18.48h-3.7Z"></path><path class="cls-2" d="M183.41,24.61v14.84h-3.7v-14.84h-5.31v-3.64h14.31v3.64h-5.31Z"></path><path class="cls-2" d="M199.62,39.74c-4.46,0-7.47-3.01-7.47-8.4v-10.38h3.7v10.32c0,2.96,1.43,4.83,3.78,4.83s3.8-1.82,3.8-4.78v-10.38h3.7v10.32c0,5.36-2.8,8.45-7.5,8.45Z"></path><path class="cls-2" d="M219.56,24.61v14.84h-3.7v-14.84h-5.31v-3.64h14.31v3.64h-5.31Z"></path><path class="cls-2" d="M228.42,39.45v-18.48h12.83v3.62h-9.14v3.2h5.31v3.59h-5.31v4.46h9.53v3.62h-13.23Z"></path><path class="cls-2" d="M256.94,24.58v3.49h5.57v3.59h-5.57v7.79h-3.7v-18.48h13.23v3.62h-9.53Z"></path><path class="cls-2" d="M275.95,39.74c-4.83,0-8.13-3.54-8.13-9.51s3.35-9.56,8.19-9.56,8.11,3.54,8.11,9.51-3.35,9.56-8.16,9.56ZM275.92,24.35c-2.59,0-4.3,2.09-4.3,5.84s1.8,5.89,4.38,5.89,4.3-2.09,4.3-5.84-1.8-5.89-4.38-5.89Z"></path><path class="cls-2" d="M298.55,39.45l-3.3-6.65h-3.72v6.65h-3.7v-18.48h8.61c3.49,0,6.36,1.93,6.36,5.86,0,2.77-1.19,4.51-3.54,5.44l3.54,7.18h-4.25ZM296.35,24.56h-4.83v4.75h4.83c1.72,0,2.64-.79,2.64-2.4s-1-2.35-2.64-2.35Z"></path></g><g><path class="cls-2" d="M115.89,63.96v-7.76h-7.58v7.76h-3.7v-18.48h3.7v7.08h7.58v-7.08h3.7v18.48h-3.7Z"></path><path class="cls-2" d="M124.33,63.96v-18.48h12.83v3.62h-9.14v3.2h5.31v3.59h-5.31v4.46h9.53v3.62h-13.23Z"></path><path class="cls-2" d="M153.8,63.96l-1.45-4.12h-6.76l-1.45,4.12h-3.96l7.08-18.48h3.59l7.02,18.48h-4.07ZM149.89,52.98c-.37-1.08-.74-2.19-.92-2.88-.19.69-.55,1.8-.92,2.88l-1.19,3.35h4.22l-1.19-3.35Z"></path><path class="cls-2" d="M161.29,63.96v-18.48h3.7v14.84h9.27v3.64h-12.96Z"></path><path class="cls-2" d="M181.99,49.12v14.84h-3.7v-14.84h-5.31v-3.64h14.31v3.64h-5.31Z"></path><path class="cls-2" d="M202.14,63.96v-7.76h-7.58v7.76h-3.7v-18.48h3.7v7.08h7.58v-7.08h3.7v18.48h-3.7Z"></path><path class="cls-2" d="M228.8,50.87c-.66-1.27-1.72-2.01-3.38-2.01-2.77,0-4.36,2.43-4.36,5.86s1.61,5.86,4.38,5.86c1.66,0,2.64-.71,3.62-2.35l3.12,1.85c-1.27,2.61-3.49,4.17-6.84,4.17-4.83,0-8.08-3.7-8.08-9.53s3.38-9.53,8.21-9.53c3.49,0,5.6,1.69,6.76,4.09l-3.43,1.58Z"></path><path class="cls-2" d="M242.4,64.25c-4.83,0-8.13-3.54-8.13-9.51s3.35-9.56,8.19-9.56,8.11,3.54,8.11,9.51-3.35,9.56-8.16,9.56ZM242.37,48.86c-2.59,0-4.3,2.09-4.3,5.84s1.8,5.89,4.38,5.89,4.3-2.09,4.3-5.84-1.8-5.89-4.38-5.89Z"></path><path class="cls-2" d="M267.88,63.96v-6.79c0-1,.05-3.35.05-4.07-.26.69-.82,2.01-1.29,3.06l-3.75,8.21-3.75-8.21c-.48-1.06-1.03-2.38-1.29-3.06,0,.71.05,3.06.05,4.07v6.79h-3.62v-18.48h3.56l3.86,8.37c.48,1.03,1.03,2.43,1.27,3.09.24-.69.77-2.03,1.24-3.09l3.72-8.37h3.64v18.48h-3.7Z"></path><path class="cls-2" d="M284.09,57.42h-4.07v6.55h-3.7v-18.48h8.08c3.49,0,6.36,1.93,6.36,5.86,0,4.28-2.85,6.07-6.68,6.07ZM284.27,49.07h-4.25v4.75h4.3c1.72,0,2.64-.79,2.64-2.4s-1.06-2.35-2.69-2.35Z"></path><path class="cls-2" d="M301.62,64.25c-4.46,0-7.47-3.01-7.47-8.4v-10.38h3.7v10.32c0,2.96,1.43,4.83,3.78,4.83s3.8-1.82,3.8-4.78v-10.38h3.7v10.32c0,5.36-2.8,8.45-7.5,8.45Z"></path><path class="cls-2" d="M321.55,49.12v14.84h-3.7v-14.84h-5.31v-3.64h14.31v3.64h-5.31Z"></path><path class="cls-2" d="M330.68,63.96v-18.48h3.7v18.48h-3.7Z"></path><path class="cls-2" d="M351.06,63.96l-6.79-10.09c-.45-.69-1.06-1.61-1.29-2.09,0,.69.05,3.01.05,4.04v8.13h-3.64v-18.48h3.54l6.55,9.77c.45.69,1.06,1.61,1.29,2.09,0-.69-.05-3.01-.05-4.04v-7.82h3.64v18.48h-3.3Z"></path><path class="cls-2" d="M366.22,64.25c-4.83,0-8.08-3.7-8.08-9.53s3.38-9.53,8.21-9.53c3.78,0,5.78,1.77,7,4.62l-3.51,1.45c-.69-1.37-1.53-2.4-3.54-2.4-2.77,0-4.36,2.43-4.36,5.86s1.61,5.91,4.38,5.91c2.53,0,3.41-1.19,3.62-2.8h-2.93v-3.46h6.63v2.43c0,4.75-3.14,7.45-7.42,7.45Z"></path></g></svg>